# xmcd
#
# Track frame offsets: 
#        150
#        16595
#        35192
#        53162
#        76082
#        93850
#        116625
#        134685
#        154532
#        179170
#
# Disc length: 2630 seconds
#
# Revision: 5
# Processed by: cddbd v1.5.2PL0 Copyright (c) Steve Scherf et al.
# Submitted via: ExactAudioCopyFreeDBPlugin 1.0
#
DISCID=7b0a440a
DTITLE=張洪量 - 全世界只有你不知道 CD2
DYEAR=2004
DGENRE=Pop
TTITLE0=我能帶走妳的什麼
TTITLE1=心愛妹妹的眼睛
TTITLE2=美麗的花蝴蝶
TTITLE3=整個給你
TTITLE4=你不是一個好情人
TTITLE5=沒有永久的愛情
TTITLE6=情定日落橋
TTITLE7=談情說愛
TTITLE8=你是我的青春夢
TTITLE9=相思三態
EXTD=YEAR: 2004
EXTT0=
EXTT1=
EXTT2=
EXTT3=
EXTT4=
EXTT5=
EXTT6=
EXTT7=
EXTT8=
EXTT9=
PLAYORDER=
